<svg width="161" height="139" viewBox="0 0 161 139" fill="none" xmlns="http://www.w3.org/2000/svg">
<path d="M28.0886 96.5915C25.0092 97.064 22.8595 99.2012 19.8822 100.045L20.9391 98.8634L21.9859 97.7086L44.7879 73.2536L76.3846 39.3487C83.7081 31.4982 90.9887 23.6012 98.351 15.788C100.45 13.5638 102.485 11.2923 104.558 9.03584C105.459 8.06795 105.467 8.08617 106.016 9.29771C106.565 10.5093 107.27 11.606 107.869 12.7837C107.936 12.9723 108.072 13.1281 108.25 13.2191C108.428 13.31 108.634 13.3291 108.826 13.2724C109.062 13.2315 109.301 13.2077 109.541 13.2014C112.028 12.8763 112.299 13.0389 112.734 15.4768C112.929 16.5629 113.111 16.9637 114.338 16.5946C116.701 15.8753 116.742 15.9888 116.707 18.4087C116.694 19.2048 116.754 19.7486 117.848 19.5937C118.923 19.4851 120.003 19.4429 121.084 19.4674C121.644 19.4442 121.783 19.6777 121.557 20.1972C121.121 21.174 120.698 22.1558 120.261 23.1772C121.779 23.51 123.321 23.7219 124.873 23.8109C125.6 23.8881 125.959 23.9779 125.705 24.8722C125.39 25.97 125.331 27.1493 125.047 28.2662C124.845 29.0819 125.156 29.2595 125.869 29.2331C127.101 29.191 128.34 29.2117 129.577 29.1563C130.345 29.0829 130.502 29.429 130.433 30.0753C130.236 31.4596 130.147 32.8614 129.924 34.2358C129.813 34.9118 129.951 35.1677 130.667 35.1505C131.899 35.1307 133.12 35.1373 134.371 35.2077C134.758 35.2629 135.266 35.0989 135.443 35.4906C135.62 35.8823 135.19 36.1209 135.026 36.4368C134.165 38.1223 133.342 39.8451 132.361 41.8482C135.771 41.281 138.272 39.3139 141.092 38.2675C138.292 41.248 135.5 44.2468 132.701 47.2049C124.72 55.7596 116.748 64.3207 108.787 72.8882L75.9539 108.111C69.3691 115.177 62.7931 122.246 56.226 129.318C55.5347 130.07 55.313 130.017 54.9137 129.111C54.4228 128.027 53.7861 127.009 53.2041 125.966C53.0566 125.637 52.7954 125.372 52.4683 125.22C52.1413 125.067 51.7703 125.038 51.4234 125.137C50.531 125.3 49.3983 125.659 48.7426 125.253C48.0868 124.848 48.1887 123.594 48.0931 122.704C47.969 121.509 47.499 121.393 46.4384 121.741C43.9371 122.545 43.8585 122.492 44.011 119.92C44.0828 118.867 43.6817 118.708 42.8109 118.773C41.6571 118.868 40.4927 118.89 39.3406 118.94C39.2768 118.969 39.19 118.898 39.2165 118.908C39.5373 117.896 39.8449 116.878 40.2014 115.872C40.3933 115.302 40.5767 114.955 39.6506 114.946C38.3803 114.929 37.1161 114.634 35.8392 114.554C35.1027 114.503 34.9674 114.18 35.1032 113.559C35.3896 112.276 35.6008 110.973 35.9626 109.712C36.1688 109.003 35.8701 108.974 35.3544 108.999L31.1888 109.206C30.5656 109.236 30.2603 109.143 30.407 108.352C30.6696 106.993 30.6566 105.583 30.9457 104.233C31.1839 103.16 30.7404 103.053 29.8946 103.052C28.6954 103.046 27.5038 102.96 26.3005 102.945C25.616 102.937 25.4417 102.697 25.7513 102.096C26.2675 101.006 26.7524 99.9191 27.2686 98.829C27.6371 98.1216 27.9127 97.3695 28.0886 96.5915Z" fill="#13CAE1"/>
</svg>
