<svg width="121" height="154" viewBox="0 0 121 154" fill="none" xmlns="http://www.w3.org/2000/svg">
<path d="M78.3135 133.341C78.2385 136.456 79.9656 138.947 80.2736 142.026L79.2961 140.779L78.3429 139.545L58.2666 112.807L30.4295 75.7535C23.9852 67.1665 17.4878 58.6137 11.0871 49.995C9.26557 47.538 7.38611 45.137 5.52833 42.6996C4.73348 41.6429 4.75286 41.6379 6.04186 41.3103C7.33087 40.9826 8.53429 40.4806 9.79882 40.0973C9.99615 40.0649 10.1735 39.958 10.2943 39.7987C10.4151 39.6393 10.4701 39.4397 10.4479 39.241C10.4489 39.0014 10.4674 38.7622 10.5032 38.5253C10.6194 36.0194 10.8271 35.7809 13.3034 35.7808C14.4069 35.7788 14.8334 35.6704 14.6852 34.3977C14.3918 31.9444 14.5105 31.9245 16.8868 32.3832C17.6684 32.5353 18.2142 32.572 18.2535 31.4683C18.3351 30.3908 18.4832 29.3194 18.6968 28.2602C18.7722 27.7045 19.0265 27.6089 19.4982 27.9223C20.3834 28.5227 21.2759 29.111 22.2048 29.7209C22.7987 28.2846 23.2778 26.8034 23.6376 25.2914C23.841 24.5896 23.9925 24.2519 24.8284 24.6585C25.8539 25.1613 27.0046 25.426 28.0542 25.9021C28.822 26.2434 29.0513 25.9685 29.1504 25.2623C29.3251 24.0416 29.5628 22.8256 29.7253 21.5977C29.7877 20.8286 30.156 20.735 30.78 20.9169C32.1085 21.353 33.4728 21.6872 34.7868 22.1476C35.4328 22.3755 35.709 22.2847 35.8177 21.576C36.0142 20.3601 36.235 19.1587 36.5237 17.94C36.6459 17.5685 36.5735 17.04 36.9902 16.9341C37.407 16.8281 37.5665 17.2932 37.8487 17.5103C39.3569 18.654 40.9087 19.766 42.7087 21.0831C42.7484 17.6268 41.2505 14.8193 40.7149 11.86C43.1581 15.1391 45.6207 18.4134 48.0421 21.6877C55.0642 31.0462 62.0943 40.3956 69.1325 49.7362L98.0498 88.2386C103.851 95.9607 109.657 103.675 115.468 111.381C116.088 112.193 115.996 112.402 115.034 112.636C113.881 112.929 112.767 113.378 111.638 113.768C111.288 113.855 110.982 114.066 110.774 114.361C110.567 114.656 110.473 115.016 110.51 115.375C110.513 116.282 110.668 117.461 110.154 118.035C109.64 118.609 108.423 118.289 107.53 118.227C106.332 118.14 106.135 118.582 106.292 119.687C106.644 122.291 106.579 122.359 104.074 121.758C103.049 121.502 102.823 121.869 102.734 122.738C102.624 123.891 102.442 125.041 102.289 126.184C102.306 126.252 102.222 126.325 102.236 126.3C101.296 125.807 100.348 125.326 99.4193 124.798C98.8918 124.509 98.5829 124.268 98.4118 125.178C98.1718 126.426 97.6599 127.619 97.3568 128.862C97.1778 129.578 96.8361 129.654 96.2482 129.412C95.0359 128.905 93.79 128.468 92.6114 127.891C91.9504 127.564 91.8691 127.852 91.8032 128.364L91.2763 132.502C91.1962 133.121 91.0518 133.405 90.2989 133.122C89.0066 132.625 87.6159 132.39 86.3381 131.869C85.3226 131.446 85.14 131.864 84.9905 132.696C84.7744 133.876 84.4807 135.034 84.2549 136.216C84.1266 136.889 83.8603 137.018 83.3227 136.608C82.3401 135.908 81.3552 135.241 80.3726 134.541C79.7407 134.054 79.0486 133.651 78.3135 133.341Z" fill="#13CAE1"/>
</svg>
