<svg width="147" height="163" viewBox="0 0 147 163" fill="none" xmlns="http://www.w3.org/2000/svg">
<path d="M99.6863 28.5349C101.917 26.3601 102.423 23.3714 104.355 20.9542L104.182 22.5297L104.002 24.0779L99.6681 57.232L93.6728 103.188C92.2786 113.833 90.9462 124.491 89.4987 135.129C89.0837 138.159 88.7494 141.19 88.3741 144.231C88.2038 145.543 88.1865 145.533 87.0357 144.866C85.8849 144.199 84.6734 143.717 83.5012 143.107C83.3375 142.992 83.1359 142.945 82.9381 142.974C82.7404 143.004 82.5615 143.108 82.4385 143.266C82.2702 143.436 82.0898 143.594 81.8986 143.739C80.0638 145.449 79.7486 145.475 77.9777 143.744C77.1872 142.974 76.8065 142.753 76.0228 143.767C74.5177 145.727 74.4189 145.658 73.0403 143.669C72.5877 143.014 72.223 142.606 71.4234 143.368C70.6118 144.081 69.757 144.744 68.8639 145.352C68.4215 145.696 68.1728 145.587 68.0546 145.033C67.8412 143.985 67.6143 142.941 67.3764 141.855C65.9477 142.467 64.5697 143.191 63.2554 144.021C62.6194 144.381 62.275 144.516 61.9615 143.641C61.5796 142.565 60.9418 141.571 60.524 140.497C60.2136 139.716 59.8574 139.753 59.2929 140.188C58.3147 140.939 57.2947 141.642 56.3202 142.407C55.7379 142.913 55.4091 142.723 55.09 142.157C54.4449 140.916 53.7028 139.723 53.0851 138.476C52.7824 137.861 52.5214 137.733 51.9483 138.164C50.9578 138.896 49.9601 139.601 48.9018 140.27C48.5547 140.451 48.2371 140.879 47.865 140.664C47.4929 140.448 47.704 140.004 47.654 139.651C47.3749 137.779 47.0425 135.899 46.676 133.699C44.2316 136.143 43.3402 139.198 41.6546 141.688C42.1997 137.636 42.7274 133.573 43.2848 129.539C44.805 117.938 46.3133 106.338 47.8096 94.7385L54.045 46.9916C55.2944 37.4143 56.5347 27.8394 57.7658 18.267C57.8909 17.2531 58.1023 17.1675 58.9539 17.6725C59.9836 18.269 61.0935 18.7271 62.1733 19.2371C62.4847 19.4193 62.8514 19.4831 63.206 19.4168C63.5606 19.3506 63.8795 19.1588 64.1042 18.8765C64.7357 18.2253 65.4484 17.2745 66.2177 17.2233C66.9871 17.172 67.6331 18.2513 68.2282 18.9196C69.0241 19.8199 69.4742 19.6415 70.1345 18.7412C71.7024 16.6332 71.7967 16.6301 73.168 18.8114C73.722 19.7102 74.1407 19.606 74.8113 19.0469C75.6952 18.2992 76.6296 17.604 77.5381 16.8937C77.5731 16.8331 77.6847 16.84 77.6574 16.8473C77.9851 17.8577 78.3264 18.8644 78.6217 19.8907C78.7969 20.466 78.8491 20.8546 79.6077 20.3232C80.6514 19.5989 81.8513 19.1037 82.9369 18.4267C83.5656 18.0397 83.8635 18.2238 84.1143 18.8083C84.6268 20.0182 85.2126 21.2013 85.6518 22.4381C85.8957 23.1341 86.1559 22.9843 86.5609 22.6643L89.8298 20.074C90.3196 19.6874 90.6216 19.585 90.9621 20.3139C91.5388 21.5726 92.3693 22.7125 92.9187 23.9784C93.3492 24.9906 93.772 24.8195 94.4608 24.3287C95.4399 23.6362 96.4594 23.0134 97.4472 22.3259C98.0089 21.9348 98.2899 22.0283 98.3876 22.6974C98.6013 23.8845 98.8388 25.0506 99.0525 26.2377C99.164 27.0275 99.3771 27.7996 99.6863 28.5349Z" fill="#11BF1A"/>
</svg>
