<svg width="52" height="68" viewBox="0 0 52 68" fill="none" xmlns="http://www.w3.org/2000/svg">
<path d="M40.5461 67.281C40.7937 67.2714 41.0404 67.2608 41.2871 67.2464C47.9083 66.8696 51.8045 59.3043 48.3271 53.6405C46.5104 50.6884 43.8151 49.2542 40.3845 49.2427C34.8237 49.2235 29.2638 49.2427 23.7029 49.2427C16.3267 49.2427 8.94979 49.2427 1.57228 49.2427H0.65918C0.65918 50.5144 0.65918 51.716 0.671609 52.9176C0.671609 53.0301 0.774872 53.1551 0.857099 53.2512C1.1143 53.5492 1.46042 53.7972 1.63635 54.1356C2.86211 56.4974 2.86975 58.9554 2.0886 61.4413C1.85339 62.1901 1.51492 62.9034 0.789214 63.335C0.705074 63.385 0.669697 63.5753 0.667785 63.7012C0.65918 64.4856 0.65918 65.271 0.65918 66.0563V67.281H40.5461ZM40.8023 57.6798C40.635 57.575 40.3711 57.6125 40.1503 57.6125C29.2504 57.6125 18.3533 57.6125 7.45918 57.6125H6.59867L5.72667 53.206C5.79552 53.206 5.94467 53.1839 6.09383 53.1839C17.5489 53.1839 29.004 53.1839 40.4591 53.1839C43.1057 53.1839 45.1958 54.9238 45.627 57.4558C46.1423 60.4838 43.8008 63.3292 40.7106 63.3532C36.5523 63.3859 32.3922 63.3628 28.2359 63.3628H5.71807C6.00491 61.8931 6.29748 60.4377 6.5958 58.9304H10.6278C20.5206 58.9304 30.414 58.9304 40.308 58.9304C40.4811 58.9304 40.7029 58.9583 40.8167 58.867C41.0079 58.7122 41.2489 58.4709 41.246 58.2681C41.2431 58.0653 41.0079 57.8048 40.8023 57.6798Z" fill="#F95E05"/>
<path d="M23.8437 31.2196C20.7993 30.6435 18.9918 28.5425 17.5452 26.0536C15.9368 23.2862 15.0398 20.2797 14.9862 17.0678C14.9393 14.2611 15.8086 11.8038 18.1196 10.0409C19.7395 8.80506 21.5968 8.40081 23.5881 8.70232C24.4756 8.83675 25.3391 9.12674 26.2687 9.36007L26.9389 7.43963C25.9145 7.25334 24.8824 7.15156 23.9002 6.86925C22.1281 6.36513 21.1076 5.08131 20.6978 3.32314C20.5255 2.58185 20.4872 1.80695 20.4202 1.04549C20.4106 0.935063 20.5858 0.704609 20.6729 0.705569C22.6183 0.730535 24.4842 1.03205 25.7881 2.67883C26.7081 3.83974 26.9561 5.24551 27.004 6.69257C27.0004 6.82478 27.0146 6.95687 27.0461 7.0853C27.8522 5.22631 28.6612 3.37499 30.0647 1.81751L33.2996 3.3289C30.9062 4.88447 29.2183 7.0104 27.7469 9.43689C28.3854 9.23332 28.9484 9.024 29.5266 8.8742C31.5936 8.3384 33.6021 8.41137 35.4795 9.55308C37.0726 10.521 38.0347 11.9748 38.5747 13.7253C39.2659 15.9607 39.0955 18.2133 38.6359 20.4612C38.1324 22.928 37.2487 25.2518 35.8155 27.3278C34.526 29.1945 32.9434 30.7049 30.6046 31.2004H51.5125V32.4583C51.5125 33.2418 51.5125 34.0263 51.5029 34.8099C51.5029 34.9357 51.4665 35.1258 51.3813 35.1757C50.6518 35.6069 50.3167 36.3193 50.0812 37.0674C49.299 39.5524 49.3067 42.0087 50.534 44.3651C50.7102 44.7031 51.0568 44.9498 51.3143 45.2485C51.3966 45.3445 51.4991 45.4684 51.5 45.5807C51.5134 46.7791 51.5086 47.9813 51.5086 49.2555H50.5982C43.2112 49.2555 35.8248 49.2555 28.439 49.2555C22.871 49.2555 17.303 49.2728 11.7359 49.2555C8.30091 49.243 5.59827 47.8151 3.78311 44.8625C0.300221 39.2048 4.20148 31.6469 10.8322 31.2705C13.3443 31.1284 15.8717 31.2244 18.3953 31.2177C20.2086 31.2148 22.0266 31.2196 23.8437 31.2196ZM45.5682 40.8948H44.7066H11.9734C11.7522 40.8948 11.488 40.9313 11.3195 40.8276C11.1175 40.7018 10.8781 40.4435 10.8753 40.2428C10.8724 40.0421 11.1146 39.7992 11.3061 39.6456C11.419 39.5495 11.6421 39.5822 11.8154 39.5822C21.7209 39.5822 31.6271 39.5822 41.5339 39.5822H45.5711L46.449 35.1546H23.9011C19.7376 35.1546 15.5721 35.1315 11.4104 35.1642C8.31527 35.1882 5.97164 38.0305 6.48766 41.0561C6.91943 43.5844 9.01223 45.3214 11.6622 45.3224C23.1321 45.3269 34.6016 45.3269 46.0708 45.3224C46.2211 45.3224 46.3705 45.3042 46.4384 45.2994C46.1493 43.835 45.8659 42.4004 45.5682 40.8948ZM23.3708 11.3122C23.073 11.3429 22.85 11.3506 22.6326 11.39C20.1818 11.8423 18.3839 13.634 18.0143 16.1911C17.506 19.7151 18.5054 22.8628 20.6595 25.6551C21.1085 26.237 21.6303 26.7622 22.1185 27.3144C19.5921 21.7518 19.0531 16.3995 23.3708 11.3122ZM28.7818 31.2004C28.2275 31.0314 27.745 30.8749 27.2557 30.7395C27.1099 30.696 26.9555 30.69 26.8067 30.7222C26.2409 30.871 25.6809 31.0439 25.1457 31.2023L28.7818 31.2004Z" fill="#F95E05"/>
</svg>
