<svg width="149" height="163" viewBox="0 0 149 163" fill="none" xmlns="http://www.w3.org/2000/svg">
<path d="M108.649 129.683C109.534 132.67 111.943 134.511 113.181 137.347L111.868 136.46L110.582 135.579L83.2664 116.295L45.3979 89.5771C36.6286 83.3832 27.8191 77.2382 19.0815 71.0007C16.5937 69.2216 14.0679 67.5136 11.5515 65.7642C10.4706 65.0025 10.4876 64.9919 11.6137 64.2843C12.7399 63.5767 13.7311 62.7296 14.8169 61.9765C14.9947 61.8851 15.1307 61.729 15.1967 61.5402C15.2628 61.3515 15.2538 61.1446 15.1717 60.9623C15.0991 60.7339 15.0433 60.5006 15.0046 60.2641C14.3459 57.8436 14.4703 57.5529 16.827 56.7925C17.8767 56.4519 18.2492 56.2178 17.7175 55.052C16.685 52.8073 16.7919 52.7519 19.1943 52.4589C19.9848 52.3638 20.5156 52.2311 20.2141 51.1686C19.961 50.1181 19.773 49.053 19.6511 47.9793C19.5522 47.4273 19.7649 47.2583 20.3101 47.4117C21.3369 47.7114 22.3668 47.9973 23.4381 48.2926C23.5624 46.7433 23.5636 45.1865 23.4419 43.637C23.42 42.9067 23.4605 42.5388 24.3809 42.6691C25.5112 42.8329 26.6876 42.7315 27.8327 42.8623C28.6682 42.9515 28.802 42.6194 28.6795 41.9169C28.471 40.7016 28.3239 39.4713 28.1016 38.2528C27.9249 37.5017 28.2466 37.2995 28.8964 37.281C30.2945 37.2883 31.6956 37.1874 33.0875 37.2223C33.7723 37.2408 34.0072 37.0696 33.8931 36.3617C33.7069 35.1442 33.5482 33.933 33.4487 32.6846C33.451 32.2935 33.2198 31.8128 33.5839 31.584C33.948 31.3552 34.2426 31.7488 34.5778 31.8689C36.3643 32.4943 38.1826 33.0761 40.3 33.777C39.2767 30.4755 36.9892 28.2634 35.571 25.6115C38.9029 27.9822 42.2518 30.3422 45.5614 32.7151C55.1175 39.4658 64.6785 46.2055 74.2444 52.9342L113.586 80.6995C121.478 86.2676 129.372 91.8266 137.268 97.3763C138.106 97.9594 138.084 98.1863 137.24 98.7045C136.232 99.3376 135.31 100.106 134.356 100.824C134.049 101.015 133.822 101.309 133.715 101.654C133.609 101.999 133.63 102.37 133.775 102.701C134.057 103.563 134.566 104.636 134.253 105.341C133.94 106.045 132.684 106.114 131.815 106.329C130.648 106.614 130.596 107.095 131.085 108.099C132.219 110.469 132.178 110.554 129.609 110.751C128.556 110.822 128.453 111.241 128.635 112.095C128.885 113.225 129.064 114.376 129.27 115.511C129.307 115.57 129.249 115.666 129.255 115.638C128.208 115.457 127.159 115.29 126.113 115.073C125.522 114.96 125.154 114.825 125.271 115.744C125.425 117.005 125.304 118.297 125.398 119.573C125.447 120.31 125.145 120.488 124.511 120.437C123.202 120.327 121.882 120.294 120.583 120.106C119.854 119.998 119.865 120.298 119.96 120.805L120.728 124.905C120.842 125.518 120.792 125.833 119.988 125.795C118.606 125.719 117.21 125.922 115.834 125.818C114.738 125.728 114.692 126.182 114.806 127.02C114.962 128.209 115.038 129.401 115.186 130.595C115.271 131.274 115.057 131.48 114.419 131.254C113.269 130.89 112.127 130.557 110.977 130.193C110.226 129.924 109.444 129.752 108.649 129.683Z" fill="#F22458"/>
</svg>
