<svg width="144" height="163" viewBox="0 0 144 163" fill="none" xmlns="http://www.w3.org/2000/svg">
<path d="M40.8312 30.8802C40.1425 27.8419 37.8588 25.8483 36.8074 22.9381L38.0603 23.9089L39.286 24.8716L65.2896 45.8903L101.34 75.0148C109.688 81.7659 118.08 88.4708 126.393 95.2633C128.76 97.2004 131.169 99.0691 133.567 100.978C134.596 101.809 134.578 101.818 133.408 102.451C132.238 103.084 131.194 103.865 130.062 104.546C129.878 104.625 129.733 104.772 129.654 104.956C129.576 105.14 129.572 105.347 129.642 105.535C129.699 105.767 129.74 106.004 129.763 106.242C130.263 108.7 130.12 108.983 127.719 109.588C126.649 109.86 126.262 110.069 126.717 111.267C127.601 113.574 127.491 113.622 125.075 113.758C124.28 113.802 123.741 113.9 123.973 114.98C124.157 116.044 124.276 117.12 124.328 118.199C124.39 118.756 124.167 118.911 123.633 118.722C122.628 118.357 121.619 118.004 120.569 117.64C120.344 119.178 120.242 120.731 120.262 122.285C120.237 123.016 120.172 123.38 119.262 123.19C118.145 122.953 116.965 122.978 115.831 122.773C115.003 122.63 114.847 122.952 114.924 123.661C115.053 124.888 115.12 126.125 115.262 127.355C115.39 128.116 115.056 128.297 114.406 128.273C113.011 128.175 111.607 128.185 110.22 128.059C109.538 127.996 109.292 128.152 109.36 128.866C109.467 130.093 109.546 131.312 109.564 132.564C109.537 132.954 109.736 133.449 109.358 133.653C108.98 133.858 108.711 133.446 108.385 133.305C106.643 132.564 104.866 131.865 102.799 131.028C103.605 134.389 105.744 136.746 106.987 139.484C103.816 136.902 100.628 134.329 97.4794 131.746C88.3826 124.388 79.2801 117.041 70.172 109.704L32.7197 79.4392C25.2066 73.3697 17.6908 67.3092 10.1724 61.2577C9.37328 60.6212 9.41076 60.3963 10.2863 59.934C11.3329 59.3678 12.3034 58.6608 13.3025 58.0066C13.6205 57.8363 13.8665 57.557 13.9953 57.22C14.1242 56.8831 14.1272 56.5109 14.004 56.1719C13.7787 55.2932 13.3404 54.1887 13.6987 53.506C14.057 52.8232 15.3148 52.8364 16.1956 52.6782C17.3791 52.47 17.4621 51.993 17.0395 50.9596C16.0615 48.5213 16.108 48.4392 18.6844 48.4098C19.7403 48.407 19.8702 47.9957 19.7439 47.1317C19.5682 45.9874 19.4637 44.8274 19.3328 43.6817C19.2994 43.6202 19.3636 43.5286 19.3555 43.5557C20.3882 43.8043 21.4249 44.0393 22.4543 44.3238C23.0364 44.475 23.395 44.6335 23.3383 43.7091C23.266 42.4407 23.4708 41.1588 23.4608 39.8795C23.4594 39.1412 23.772 38.9835 24.4013 39.075C25.7008 39.2703 27.0156 39.3889 28.2996 39.6607C29.0205 39.8164 29.0288 39.5164 28.9675 39.0038L28.467 34.8631C28.3933 34.2436 28.4638 33.9326 29.2632 34.0231C30.6377 34.1891 32.0435 34.0766 33.41 34.2696C34.498 34.4314 34.573 33.9815 34.5145 33.1378C34.4356 31.9411 34.4373 30.7464 34.3672 29.545C34.3273 28.8617 34.5538 28.671 35.1754 28.9373C36.2992 29.3753 37.4175 29.7822 38.5413 30.2202C39.273 30.5378 40.0427 30.7596 40.8312 30.8802Z" fill="#F22458"/>
</svg>
