<svg width="146" height="163" viewBox="0 0 146 163" fill="none" xmlns="http://www.w3.org/2000/svg">
<path d="M46.4496 134.246C44.2221 136.424 43.7201 139.413 41.7917 141.833L41.9625 140.258L42.1405 138.709L46.4248 105.549L52.3512 59.5837C53.7296 48.9364 55.0459 38.2764 56.4775 27.6367C56.8879 24.6059 57.2177 21.5747 57.5885 18.5325C57.7568 17.2209 57.7741 17.2309 58.926 17.8959C60.0778 18.5609 61.29 19.0414 62.4631 19.6494C62.627 19.764 62.8286 19.8112 63.0263 19.7814C63.224 19.7516 63.4028 19.647 63.5256 19.4892C63.6936 19.3184 63.8738 19.16 64.0648 19.0153C65.897 17.3018 66.2121 17.2759 67.9856 19.0042C68.7772 19.773 69.1583 19.993 69.9405 18.9782C71.4426 17.0164 71.5415 17.0851 72.9231 19.0721C73.3767 19.7265 73.742 20.1338 74.5405 19.3708C75.351 18.6561 76.2048 17.9922 77.097 17.3827C77.5389 17.0374 77.7877 17.1464 77.9068 17.7001C78.1217 18.7479 78.3502 19.7921 78.5898 20.8772C80.0176 20.2631 81.3945 19.5368 82.7075 18.7051C83.3429 18.3445 83.6871 18.2084 84.002 19.083C84.3854 20.1588 85.0248 21.1515 85.4442 22.225C85.7558 23.0054 86.1119 22.9685 86.6757 22.5319C87.6528 21.7797 88.6718 21.0747 89.6451 20.3088C90.2266 19.8016 90.5557 19.9916 90.8757 20.5574C91.5226 21.7969 92.2665 22.9885 92.8861 24.2353C93.1897 24.8494 93.4509 24.9771 94.0233 24.5455C95.0127 23.8119 96.0094 23.1056 97.0667 22.4343C97.4135 22.2535 97.7305 21.8245 98.1029 22.0395C98.4753 22.2545 98.2649 22.6989 98.3154 23.0514C98.5973 24.9231 98.9326 26.8025 99.3023 29.002C101.743 26.5545 102.63 23.4985 104.312 21.0054C103.773 25.059 103.251 29.1226 102.7 33.1575C101.197 44.7606 99.706 56.3629 98.2271 67.9644L92.0632 115.721C90.8281 125.3 89.6022 134.876 88.3854 144.451C88.2618 145.465 88.0505 145.551 87.1982 145.047C86.1676 144.452 85.057 143.996 83.9764 143.487C83.6648 143.306 83.298 143.242 82.9435 143.309C82.5889 143.376 82.2703 143.568 82.0461 143.851C81.4155 144.503 80.7043 145.455 79.935 145.507C79.1658 145.56 78.5182 144.481 77.922 143.814C77.1248 142.915 76.675 143.094 76.016 143.995C74.4512 146.105 74.3569 146.109 72.9824 143.929C72.427 143.031 72.0085 143.136 71.3387 143.696C70.456 144.445 69.5226 145.142 68.6152 145.854C68.5802 145.914 68.4686 145.908 68.4959 145.9C68.1668 144.89 67.824 143.884 67.5271 142.858C67.3511 142.283 67.2982 141.895 66.5405 142.427C65.4978 143.153 64.2987 143.65 63.214 144.329C62.5859 144.717 62.2878 144.533 62.0361 143.949C61.5218 142.74 60.9342 141.558 60.4932 140.321C60.2482 139.626 59.9883 139.776 59.5837 140.097L56.3187 142.692C55.8295 143.079 55.5277 143.182 55.1861 142.454C54.6075 141.196 53.7753 140.057 53.224 138.792C52.7919 137.78 52.3694 137.952 51.6813 138.444C50.7033 139.138 49.6847 139.762 48.698 140.451C48.1369 140.843 47.8557 140.75 47.757 140.081C47.5415 138.894 47.3023 137.729 47.0868 136.542C46.9741 135.752 46.7599 134.98 46.4496 134.246Z" fill="#FDAA10"/>
</svg>
