<svg width="64" height="134" viewBox="0 0 64 134" fill="none" xmlns="http://www.w3.org/2000/svg">
<path d="M43.2434 9.27406C44.7979 6.57423 44.4717 3.56046 45.6728 0.708694L45.9351 2.2718L46.1829 3.81058L51.0373 36.8925L57.7778 82.7451C59.3338 93.3679 60.953 103.986 62.4556 114.616C62.8812 117.645 63.3845 120.652 63.8513 123.681C64.0443 124.989 64.025 124.984 62.7361 124.656C61.4473 124.328 60.1503 124.193 58.8563 123.926C58.6675 123.86 58.4607 123.869 58.2784 123.951C58.0961 124.033 57.9524 124.182 57.8769 124.367C57.7615 124.577 57.6309 124.779 57.4862 124.97C56.1864 127.115 55.89 127.225 53.7148 126.042C52.7446 125.516 52.3182 125.408 51.84 126.596C50.9251 128.891 50.8113 128.852 48.9433 127.313C48.3295 126.806 47.8676 126.513 47.3055 127.464C46.7188 128.371 46.0767 129.242 45.3827 130.07C45.0509 130.522 44.7818 130.484 44.5173 129.984C44.0267 129.033 43.524 128.09 42.9996 127.11C41.7914 128.088 40.6626 129.16 39.6238 130.316C39.1097 130.835 38.8153 131.059 38.2754 130.303C37.6149 129.371 36.7307 128.588 36.0363 127.669C35.5251 127.002 35.1922 127.134 34.7676 127.707C34.0308 128.695 33.2407 129.65 32.5111 130.651C32.0886 131.296 31.7204 131.203 31.2592 130.745C30.3008 129.727 29.2621 128.781 28.3281 127.748C27.8695 127.239 27.5835 127.187 27.1493 127.758C26.3955 128.732 25.6273 129.682 24.7913 130.614C24.5063 130.882 24.3174 131.381 23.9007 131.275C23.484 131.168 23.5662 130.684 23.4221 130.358C22.6439 128.633 21.8123 126.914 20.8608 124.897C19.1739 127.914 19.1477 131.096 18.2037 133.951C17.625 129.903 17.0269 125.85 16.4652 121.817C14.7702 110.24 13.064 98.6674 11.3464 87.0988L4.34951 39.4576C2.94475 29.9018 1.53189 20.3509 0.110927 10.8047C-0.0446693 9.79509 0.135429 9.65521 1.09233 9.90927C2.24551 10.203 3.43818 10.3417 4.61604 10.5385C4.96528 10.629 5.33544 10.5906 5.65866 10.4304C5.98189 10.2701 6.23652 9.9987 6.37588 9.66593C6.80629 8.86746 7.23323 7.75852 7.95957 7.49981C8.6859 7.24109 9.60129 8.10373 10.3559 8.58488C11.3668 9.23451 11.7513 8.94032 12.1416 7.89429C13.0766 5.4391 13.1664 5.4104 15.0797 7.13605C15.8575 7.85014 16.2319 7.63595 16.7251 6.91537C17.372 5.95536 18.0819 5.03202 18.7627 4.10126C18.78 4.03343 18.8893 4.00966 18.8649 4.02411C19.4552 4.90714 20.0577 5.78295 20.6212 6.69012C20.9464 7.19604 21.1025 7.55568 21.6877 6.83794C22.4949 5.85682 23.5147 5.05369 24.375 4.10676C24.8746 3.56327 25.2114 3.65935 25.6118 4.15348C26.4343 5.17821 27.3201 6.15714 28.0793 7.22768C28.5035 7.83106 28.713 7.61612 29.0156 7.19788L31.456 3.81559C31.8221 3.31031 32.0848 3.12957 32.6108 3.73825C33.5084 4.79242 34.6178 5.6632 35.491 6.73182C36.1809 7.58861 36.5411 7.30887 37.0703 6.64909C37.8239 5.71623 38.6354 4.83942 39.3987 3.90904C39.8328 3.3798 40.1286 3.39325 40.4048 4.01052C40.9336 5.09459 41.4794 6.15204 42.0082 7.23611C42.3306 7.96574 42.7457 8.65071 43.2434 9.27406Z" fill="#FBBA40"/>
</svg>
